<?xml version="1.0" encoding="UTF-8"?><svg id="Layer_1" xmlns="http://www.w3.org/2000/svg" viewBox="0 0 14.09 21.76"><defs><style>.cls-1{fill:#f9c5dc;}.cls-1,.cls-2,.cls-3{stroke:#000;stroke-miterlimit:10;}.cls-2,.cls-3{stroke-width:.25px;}.cls-3{fill:none;}</style></defs><path class="cls-1" d="M13.59,7.04c0,1.54-.54,2.97-1.45,4.09l-5.12,9.57L1.8,10.94c-.82-1.08-1.3-2.44-1.3-3.9C.5,3.43,3.43.5,7.05.5s6.54,2.93,6.54,6.54Z"/><circle class="cls-3" cx="4.86" cy="10" r="1.47"/><circle class="cls-3" cx="4.86" cy="10" r=".97"/><path class="cls-3" d="M5.69,5.1c0,.09-.03.17-.08.24h-.01c-.2-.07-.44-.12-.74-.12s-.54.05-.74.12c-.05-.07-.08-.15-.08-.24,0-.3.37-.54.82-.54s.83.24.83.54Z"/><path class="cls-3" d="M5.69,5.46l.31,3.44c-.13-.07-.54-.28-1.14-.28s-1.01.21-1.14.28l.31-3.41s-.12-.06-.12-.11c0-.04.11-.05.15-.06.53-.07.5-.15.8-.13.38.02.67.17.83.26h0Z"/><circle class="cls-3" cx="8.87" cy="9.99" r="1.47"/><circle class="cls-3" cx="8.87" cy="9.99" r=".97"/><path class="cls-3" d="M9.7,5.09c0,.09-.03.17-.08.24h-.01c-.2-.07-.44-.12-.74-.12s-.54.05-.74.12c-.05-.07-.08-.15-.08-.24,0-.3.37-.54.82-.54s.83.24.83.54Z"/><path class="cls-3" d="M9.71,5.46l.31,3.44c-.13-.07-.54-.28-1.14-.28s-1.01.21-1.14.28l.31-3.41s-.12-.06-.12-.11c0-.04.11-.05.15-.06.53-.07.5-.15.8-.13.38.02.67.17.83.26h0Z"/><polygon class="cls-2" points="5.78 6.44 8.09 6.44 8.09 6.44 5.78 6.44"/><polygon class="cls-2" points="6 7.67 7.91 7.67 7.91 7.67 6 7.67"/><rect class="cls-2" x="6.15" y="8.06" width="1.58" height=".06"/></svg>