<?xml version="1.0" encoding="UTF-8"?><svg id="Layer_1" xmlns="http://www.w3.org/2000/svg" viewBox="0 0 24.6 38.9"><defs><style>.cls-1{fill:#ad7029;}.cls-2{fill:#231f20;}.cls-3{fill:#f9c5dc;stroke:#231f20;stroke-miterlimit:10;}.cls-4{fill:#fedcbb;}.cls-5{fill:#1c75bc;}</style></defs><path class="cls-3" d="M21.99,19.02h.05l-9.73,18.79L2.58,19.02h.03c-1.33-1.91-2.11-4.22-2.11-6.72C.5,5.78,5.78.5,12.3.5s11.8,5.28,11.8,11.8c0,2.5-.78,4.81-2.11,6.72Z"/><path class="cls-1" d="M11.01,18.1c-.58-.15-1.19.14-1.61.57s-.66.99-.92,1.52-.56,1.08-1.03,1.45c.85.43,1.86.52,2.78.25s1.72-.9,2.2-1.72c.16-.27.29-.57.31-.89s-.09-.65-.33-.86c-.15-.13-.35-.2-.55-.26-.29-.08-.6-.14-.9-.16"/><path class="cls-2" d="M11.14,17.61c-1.05-.24-1.97.41-2.53,1.26-.52.79-.76,1.79-1.52,2.41-.24.2-.17.65.1.79,1.66.81,3.66.53,4.98-.77.61-.61,1.18-1.49,1.02-2.38-.18-1.09-1.32-1.32-2.25-1.4-.27-.02-.5.25-.5.5,0,.29.23.48.5.5.33.03.71.08,1.02.23.22.11.29.35.26.58-.07.58-.57,1.13-1,1.49-.98.81-2.39.95-3.53.4l.1.79c.69-.56,1-1.39,1.4-2.15.31-.59.87-1.44,1.67-1.26.63.14.89-.82.27-.96h0Z"/><path class="cls-4" d="M11.17,17.33c.05-.62.27-1.21.49-1.79,1.12-2.94,2.24-5.89,3.36-8.83.14-.36.31-.76.67-.92.29-.13.62-.06.92.04.57.19,1.12.51,1.43,1.03.3.52.31,1.17.15,1.75s-.47,1.1-.78,1.62c-1.54,2.59-3.08,5.18-4.63,7.77"/><path class="cls-2" d="M11.67,17.33c.11-1.04.62-2.05.99-3.01.4-1.06.8-2.11,1.21-3.17s.8-2.11,1.21-3.17c.17-.44.3-1.1.59-1.48.35-.46.94-.19,1.36.07,1.03.63.84,1.79.35,2.72s-1.07,1.83-1.62,2.74c-1.14,1.91-2.27,3.82-3.41,5.73-.33.55.53,1.06.86.5,1.12-1.88,2.23-3.75,3.35-5.63.53-.89,1.08-1.76,1.58-2.67.41-.74.73-1.55.63-2.41-.09-.8-.56-1.44-1.24-1.85-.63-.38-1.55-.7-2.23-.26s-.88,1.47-1.14,2.16l-1.16,3.06c-.43,1.13-.86,2.26-1.29,3.4-.41,1.07-.9,2.13-1.02,3.28-.07.64.93.63,1,0h0Z"/><path class="cls-5" d="M7.35,22.34c.22.32.4.39.55.21l-.23-.17s-.01.21-.02.26c-.01.18-.02.35.05.52.17.46.69.61,1.12.39.17-.09.41-.28.52-.45.03-.02.07-.05.1-.07l-.11-.11s-.03.27-.03.31c0,.5.39.91.91.81.24-.05.42-.17.61-.31.08-.06.2-.18.31-.16s.06.03.07.15c.02.49.17.9.69,1.04s1.05-.01,1.56-.03c.34-.01.93,0,1.09.39.1.25.33.42.62.35.24-.06.45-.37.35-.62-.44-1.06-1.52-1.19-2.54-1.09-.26.03-.56,0-.81.03-.05,0,.04.05.04.09,0-.06,0-.11,0-.17,0-.14,0-.28-.03-.41-.14-.53-.71-.81-1.22-.72-.29.05-.5.19-.73.36-.02.02-.12.07-.13.09l.11.1c.08.13.12.14.12.05.05-.07.02-.28.02-.36-.05-.54-.56-.87-1.08-.76-.25.05-.47.21-.65.38-.14.13-.25.16-.07.3.19.14.13.06.15-.13.03-.44-.1-.91-.58-1.03-.54-.14-1.13.36-1.24.88-.11.55.51,1.16,1.02.76.22-.17.33-.43.18-.68-.12-.21-.47-.34-.68-.18h0Z"/><path class="cls-5" d="M8.87,21.66c.13-.17.24-.35.35-.53.06-.11.09-.26.05-.39-.03-.12-.12-.24-.23-.3-.12-.06-.26-.09-.39-.05s-.23.12-.3.23c-.03.05-.05.1-.07.15,0,.02-.01.03-.02.05-.01.07-.03.15-.02.23,0,.06.01.12.03.17s.04.11.06.16c0,.01.02.03.02.04.03.05.07.1.11.13.07.07.14.11.23.15.04.01.07.03.11.04.06.01.12.02.17.02.02,0,.03,0,.05,0,.06,0,.12-.01.17-.03.07-.02.15-.05.21-.1.06-.03.11-.07.14-.13.04-.05.07-.1.09-.17.02-.07.02-.13,0-.2,0-.07-.02-.13-.06-.19-.07-.11-.17-.2-.3-.23l-.13-.02c-.09,0-.17.02-.25.07-.02.01-.03.02-.05.03l.12-.05s-.04.02-.07.02l.13-.02s-.05,0-.08,0l.13.02s-.05-.01-.07-.02l.12.05s-.04-.02-.05-.03l.1.08s-.03-.03-.04-.04l.08.1s-.03-.04-.03-.06l.05.12s-.01-.04-.02-.07l.02.13s0-.05,0-.08l-.02.13s0-.04.02-.07l-.05.12s.01-.02.02-.03l-.86-.5c-.1.18-.22.36-.35.53-.04.06-.06.12-.06.19-.01.07-.01.13,0,.2.03.12.12.24.23.3.12.06.26.09.39.05l.12-.05c.08-.04.13-.1.18-.18h0Z"/></svg>