<?xml version="1.0" encoding="UTF-8"?>
<svg id="Layer_1" data-name="Layer 1" xmlns="http://www.w3.org/2000/svg" viewBox="0 0 92.34 94.09">
  <defs>
    <style>
      .cls-1 {
        fill: #4c3e1a;
      }

      .cls-2 {
        fill: #354024;
      }
    </style>
  </defs>
  <path class="cls-1" d="M46.17,0C20.67,0,0,20.67,0,46.17c0,18.87,11.32,35.08,27.54,42.24,1.09-1.66,2.62-3.14,4.49-4.38-15.34-5.73-26.27-20.52-26.27-37.86C5.76,23.85,23.85,5.76,46.17,5.76s40.41,18.09,40.41,40.41c0,17.34-10.93,32.13-26.27,37.86,1.87,1.24,3.39,2.73,4.49,4.38,16.22-7.16,27.54-23.38,27.54-42.24C92.34,20.67,71.67,0,46.17,0Z"/>
  <g>
    <path class="cls-1" d="M37.64,62.53c-2.16,1.87-3.18,4.8-3.28,7.66-.04,1.18.05,2.37.36,3.51.77,2.91,2.94,5.41,5.71,6.58.91.39,2.07.87,2.1,1.86.03.84-.79,1.42-1.51,1.84-2.67,1.55-5.34,3.1-8.01,4.65-.74.43-1.51.89-1.96,1.62s-.43,1.82.26,2.33c.69.5,1.66.22,2.45-.1,4.09-1.65,8.02-3.68,11.73-6.07.37-.24.76-.49,1.19-.53.6-.06,1.16.28,1.66.61,3.2,2.14,6.16,4.81,9.82,5.98,1.12.36,2.62.43,3.21-.59.38-.66.18-1.52-.28-2.13s-1.13-1-1.79-1.38c-2.72-1.59-5.44-3.17-8.16-4.76-.21-.12-.42-.25-.57-.44-.35-.45-.19-1.14.19-1.57s.91-.67,1.42-.94c3.17-1.68,5.58-4.74,6.46-8.22s.22-7.32-1.77-10.3c.91,1.07.97,2.61.98,4.02.01,1.52.02,3.05-.26,4.54-.74,3.95-3.62,7.42-7.35,8.88-.8-.63-1.1-1.73-1.02-2.74s.5-1.97.9-2.9c-1.27.18-1.93,1.57-2.38,2.77s-1.16,2.58-2.43,2.71c-.78.08-1.51-.36-2.15-.8-2.75-1.87-5.38-4.28-6.28-7.48-.22-.79-.33-1.61-.44-2.42-.28-2.07-.43-4.52,1.15-5.89"/>
    <path class="cls-1" d="M36.76,61.65c-5.77,5.24-4.57,15.8,2.39,19.4.41.21,1.8.56,2.01,1,.26.54-1.61,1.34-2.03,1.58-2.11,1.22-4.21,2.45-6.32,3.67-1.5.87-3.22,1.93-3.3,3.87-.07,1.84,1.39,3.09,3.18,2.88,1.99-.23,4.1-1.49,5.88-2.35,2.05-.99,4.06-2.08,6.01-3.26.63-.38,1.73-1.45,2.51-1.26.83.2,1.81,1.19,2.49,1.69,1.67,1.21,3.33,2.46,5.15,3.44,1.56.85,3.43,1.76,5.25,1.61s3.08-1.5,2.81-3.31c-.31-2.06-2.29-3.02-3.91-3.96-2.15-1.25-4.29-2.5-6.44-3.75-.55-.32-.99-.3-.36-.75.43-.31.95-.51,1.4-.78.83-.5,1.61-1.1,2.32-1.76,1.52-1.41,2.7-3.17,3.48-5.08,1.73-4.26,1.16-9.18-1.31-13.02l-2.16,1.26c1.01,1.35.84,3.16.82,4.76s-.17,3.23-.76,4.77c-1.04,2.71-3.25,4.98-5.94,6.09l1.22.32c-1.22-1.11-.47-2.86.08-4.13.43-.99-.27-2.1-1.41-1.84-2.08.48-2.66,2.4-3.45,4.11-.52,1.11-1.07,1.61-2.22.92-1.01-.6-1.96-1.37-2.82-2.17-1.66-1.53-2.94-3.34-3.4-5.58-.39-1.89-.98-4.8.57-6.3,1.16-1.12-.61-2.89-1.77-1.77-2,1.94-1.79,4.77-1.44,7.31.41,2.97,1.59,5.43,3.71,7.57.98.99,2.1,1.86,3.24,2.66s2.36,1.47,3.74,1.08c1.15-.32,1.96-1.3,2.48-2.32s.78-2.82,2.03-3.11l-1.41-1.84c-1.01,2.32-1.86,5.19.31,7.16.3.28.8.49,1.22.32,3.44-1.41,6.15-4.03,7.55-7.49.78-1.91.97-3.95.98-6s.09-4.14-1.16-5.8c-.94-1.25-3.05-.12-2.16,1.26,2.02,3.15,2.57,7.04,1.26,10.58-.59,1.59-1.57,3.05-2.78,4.24s-2.62,1.72-3.9,2.7-1.73,2.71-.55,3.89c.59.6,1.47.97,2.19,1.39,1,.58,2,1.17,3.01,1.75.93.54,1.86,1.08,2.79,1.63.72.42,2.06.94,2.4,1.75.7,1.66-3.59-.19-4.06-.44-1.64-.87-3.15-1.97-4.65-3.06-1.26-.91-2.71-2.33-4.3-2.55-1.69-.23-3.32,1.31-4.67,2.11-1.7,1-3.45,1.94-5.23,2.79-.61.29-5.1,2.58-5.3,1.78-.16-.67,1.03-1.27,1.47-1.53.96-.57,1.93-1.12,2.9-1.68,1.84-1.07,3.76-2.07,5.54-3.23,1.14-.74,2.17-1.91,1.77-3.37-.46-1.67-2.29-2.06-3.6-2.8-1.59-.9-2.89-2.31-3.67-3.97-1.69-3.62-.88-8.63,2.1-11.34,1.19-1.08-.58-2.85-1.77-1.77h0Z"/>
  </g>
  <g>
    <g>
      <g>
        <path class="cls-2" d="M41.68,50c1,1.78.92,4.01.26,5.94s-1.83,3.64-3,5.32c-.24.34-.48.69-.83.91-.43.27-.96.31-1.47.34-3.56.18-7.14-.04-10.65-.67-.16-.03-.34-.07-.43-.21-.16-.26.11-.56.36-.74,3.82-2.82,6.66-6.74,9.44-10.59.67-.93,1.37-1.98,1.22-3.11-1.95.11-3.9.22-5.85.33-.35.02-.75.02-1-.22-.48-.46-.02-1.26.44-1.75,2.48-2.62,4.96-5.25,7.43-7.87,1.53-1.62,3.15-3.43,3.28-5.66.01-.17,0-.37-.1-.5-.13-.16-.36-.19-.57-.21-1.1-.08-2.21-.04-3.3.12-.45.07-1.06.07-1.2-.36-.15-.44.34-.8.72-1.06,1.22-.85,1.89-2.28,2.56-3.61,2.03-4.03,4.62-7.78,7.67-11.1,3.37,4.82,6.74,9.63,10.12,14.45.37.53.69,1.38.14,1.72-.2.12-.44.12-.67.11-1.7-.04-3.41-.09-5.11-.13.41,1.56,1.39,2.89,2.38,4.15,3,3.82,6.31,7.41,9.88,10.7.39.36.78,1.05.33,1.34-.11.07-.24.09-.37.1-2.43.3-4.91.23-7.31-.21-.51.39-.6,1.16-.37,1.77s.69,1.08,1.15,1.54c2.78,2.79,5.56,5.59,8.34,8.38.67.67,1.37,1.39,1.63,2.3-2.89.63-5.9.7-8.81.19-.87-.15-1.82-.34-2.6.06-1.17.61-1.45,2.27-2.61,2.9,1.1-6.27-2.24-13.06-7.88-16.02-.69-.36-1.46-.68-2.23-.54s-1.46.9-1.26,1.65"/>
        <path class="cls-2" d="M41.24,50.25c1.82,3.56-.35,7.28-2.36,10.21-.36.52-.63.99-1.21,1.29s-1.14.26-1.76.29c-.89.03-1.78.04-2.67.02-2.06-.04-4.12-.22-6.15-.54l-.48-.08c-.61.01-.64-.11-.08-.37.22-.23.53-.41.77-.61.61-.5,1.19-1.03,1.75-1.58,1.18-1.16,2.27-2.41,3.3-3.7s1.98-2.59,2.94-3.91c.9-1.25,1.86-2.45,1.79-4.06-.01-.26-.22-.52-.5-.5-1.3.07-2.6.15-3.9.22-.51.03-1.21.2-1.71.1-1.23-.26-.64-.86-.11-1.46,1.63-1.83,3.38-3.58,5.07-5.37,1.42-1.51,2.99-2.97,4.16-4.69.64-.94,1.86-3.03,1.15-4.17-.32-.52-.95-.52-1.5-.54-.27-.01-3.04.28-3.11.18-.28-.38,1.27-1.67,1.52-2.02.51-.72.88-1.51,1.28-2.29,2.04-4,4.58-7.68,7.6-11l-.79-.1c2.34,3.34,4.68,6.69,7.03,10.03.56.8,1.12,1.61,1.69,2.41.46.66,1.35,1.5,1.56,2.25s-.09.72-.72.83c-.43.07-.95-.02-1.39-.04-1.08-.03-2.17-.05-3.25-.08-.32,0-.57.33-.48.63.49,1.66,1.45,3.03,2.51,4.38,1.31,1.67,2.69,3.3,4.11,4.88s2.91,3.1,4.44,4.58c.62.6,2.25,1.82.5,1.96-1.07.08-2.14.09-3.21.03-.53-.03-1.07-.08-1.6-.14-.26-.03-1.04-.26-1.36-.21-.43.07-.71.48-.86.87-.57,1.48.69,2.7,1.63,3.64,1.62,1.63,3.25,3.26,4.87,4.89.81.81,1.62,1.63,2.43,2.44s1.78,1.64,2.2,2.78l.35-.62c-3.24.68-6.19.44-9.44.05-.92-.11-1.83-.03-2.57.59-.86.73-1.17,1.94-2.14,2.57l.73.56c.71-4.42-.5-8.95-3.25-12.48-1.38-1.77-3.16-3.33-5.21-4.28-1.49-.7-4.14-.55-3.89,1.71.07.63,1.07.64,1,0-.32-2.91,4.57.45,5.29,1.07,1.29,1.11,2.37,2.43,3.21,3.9,1.71,2.96,2.42,6.44,1.87,9.82-.06.39.33.83.73.56.75-.49,1.15-1.18,1.64-1.9,1.07-1.58,2.47-1.09,4.1-.87,2.73.37,5.47.23,8.16-.33.25-.05.44-.37.35-.62-.4-1.1-1.12-1.88-1.94-2.7-1.1-1.11-2.2-2.21-3.3-3.32-1.04-1.05-2.09-2.1-3.13-3.14-.83-.84-3.8-3.04-2.52-4.35l-.49.13c1.25.22,2.51.36,3.78.4s2.82.17,3.98-.24c2.17-.77-.91-3.15-1.58-3.8-1.96-1.9-3.84-3.9-5.62-5.97s-4.05-4.37-4.86-7.1l-.48.63c1.24.03,2.48.06,3.72.09.71.02,1.81.26,2.42-.22,1.33-1.06-.59-3.08-1.19-3.94-3-4.28-6-8.56-8.99-12.84-.17-.25-.55-.36-.79-.1-2.48,2.73-4.68,5.7-6.51,8.9-.86,1.5-1.51,3.19-2.52,4.6-.54.76-2.54,1.69-2,2.88s2.61.47,3.52.45c.29,0,.67-.04.95,0,.49.09.57.14.6.56s-.22.97-.39,1.35c-.4.91-.99,1.71-1.63,2.46-2.72,3.19-5.96,5.95-8.62,9.18-.65.79-1.12,2.18.19,2.62.82.28,1.95,0,2.79-.04,1.3-.07,2.6-.15,3.9-.22l-.5-.5c.06,1.4-.88,2.48-1.66,3.56-.59.82-1.19,1.64-1.8,2.44-1.36,1.8-2.81,3.55-4.44,5.12-.8.77-1.68,1.42-2.52,2.15-.37.32-.72.64-.6,1.17.14.62.73.67,1.27.77,1,.18,2.01.31,3.02.41,2.4.25,4.86.36,7.28.19,1.83-.13,2.51-1.14,3.47-2.58,2.11-3.15,3.87-6.99,1.99-10.68-.29-.57-1.16-.07-.86.5h0Z"/>
      </g>
      <path class="cls-2" d="M43.05,27.46c-1.23-.86-2.56-1.54-3.97-2.06-.2-.07-.47.05-.56.23-.88,1.65-1.9,3.22-3.06,4.68l.79.61c2.25-3.32,4.5-6.65,6.75-9.97.36-.53-.5-1.04-.86-.5-2.25,3.32-4.5,6.65-6.75,9.97-.31.46.43,1.05.79.61,1.22-1.53,2.3-3.16,3.22-4.88l-.56.23c1.33.49,2.57,1.15,3.73,1.96.53.37,1.03-.5.5-.86h0Z"/>
    </g>
    <path class="cls-2" d="M36.76,62.94c.45-.09-.66-.02-.08.02.2,0,.09-.02-.35-.06-.43-.14-.77-.42-1.01-.83v-2.52c-.14.21-.28.41-.42.62-.69,1.03-.28,2.51.64,3.23s2.44.73,3.28-.2c1.6-1.74,2.72-4.05,3.59-6.24s.97-4.96-.31-7.11c-.67-1.12-2.28-1.63-3.42-.9s-1.61,2.22-.9,3.42c.06.09.11.19.16.29.12.24.1.2-.06-.15.03,0,.16.58.18.63.14.52-.01-.56,0-.01,0,.22.02.44,0,.66,0,.11-.01.22-.02.33.06-.39.07-.45.02-.17-.04.17-.07.34-.11.51-.06.24-.13.48-.22.72-.02.06-.29.75-.15.4s-.15.33-.18.39c-.11.23-.22.45-.34.68-.2.38-.4.77-.6,1.15s-.4.73-.62,1.09c-.1.17-.24.47-.4.59.21-.27.23-.3.06-.09-.08.09-.16.18-.24.27l3.93,3.03c.14-.21.28-.41.42-.62.45-.67.49-1.86,0-2.52-.53-.72-1.14-1.27-2.04-1.48-.74-.17-1.43-.09-2.17.05-1.29.25-2.14,1.86-1.75,3.08.44,1.37,1.7,2.01,3.08,1.75h0Z"/>
  </g>
</svg>