<?xml version="1.0" encoding="UTF-8"?><svg id="Layer_1" xmlns="http://www.w3.org/2000/svg" viewBox="0 0 74.61 35.58"><defs><style>.cls-1{fill:#231f20;}.cls-2{fill:#8b4d64;}.cls-3{fill:#945d7d;}.cls-4{fill:#723440;}.cls-5{fill:#7a5875;}.cls-6{fill:#fff2b5;}.cls-7{fill:#540d21;}</style></defs><rect class="cls-5" x="30.05" y="10.13" width="12.4" height="25.36"/><rect class="cls-5" x="42.45" y="1.42" width="12.4" height="34.07"/><rect class="cls-4" x="49.8" y="20.98" width="12.4" height="14.6"/><polygon class="cls-7" points="56 15.29 62.2 20.98 49.8 20.98 56 15.29"/><rect class="cls-6" x="57.25" y="22.99" width="2.43" height="3.83"/><rect class="cls-6" x="52.09" y="22.99" width="2.43" height="3.83"/><rect class="cls-1" x="54.33" y="29.88" width="3.34" height="5.66"/><polygon class="cls-3" points="12.4 16.53 12.4 10.09 0 10.09 0 35.45 11.75 35.45 12.4 35.45 25.82 35.45 25.82 16.53 12.4 16.53"/><polygon class="cls-7" points="6.2 4.41 12.4 10.09 0 10.09 6.2 4.41"/><rect class="cls-6" x="2.65" y="12.7" width="2.43" height="3.83"/><rect class="cls-6" x="7.44" y="12.7" width="2.47" height="3.83"/><rect class="cls-6" x="7.46" y="29.01" width="2.43" height="3.83"/><rect class="cls-6" x="7.46" y="20.85" width="2.43" height="3.83"/><rect class="cls-6" x="2.65" y="20.85" width="2.43" height="3.83"/><rect class="cls-6" x="21.56" y="29.01" width="2.43" height="3.83"/><rect class="cls-6" x="17.11" y="29.01" width="2.43" height="3.83"/><rect class="cls-6" x="12.4" y="29.01" width="2.43" height="3.83"/><rect class="cls-6" x="21.56" y="20.85" width="2.43" height="3.83"/><rect class="cls-6" x="17.11" y="20.85" width="2.43" height="3.83"/><rect class="cls-6" x="12.4" y="20.85" width="2.43" height="3.83"/><rect class="cls-1" x="1.75" y="29.75" width="3.34" height="5.66"/><rect class="cls-4" x="20.93" width="12.4" height="35.49"/><rect class="cls-6" x="28.21" y="18.45" width="2.43" height="3.83"/><rect class="cls-6" x="23.38" y="18.45" width="2.43" height="3.83"/><rect class="cls-6" x="28.21" y="10.49" width="2.43" height="3.83"/><rect class="cls-6" x="23.38" y="10.49" width="2.43" height="3.83"/><rect class="cls-6" x="28.21" y="2.53" width="2.43" height="3.83"/><rect class="cls-6" x="23.38" y="2.53" width="2.43" height="3.83"/><rect class="cls-6" x="28.21" y="26.77" width="2.43" height="3.83"/><rect class="cls-1" x="22.93" y="29.79" width="3.34" height="5.66"/><rect class="cls-2" x="62.2" y="8.28" width="12.4" height="27.21"/><rect class="cls-6" x="69.82" y="20.9" width="2.43" height="3.83"/><rect class="cls-6" x="69.82" y="13.91" width="2.43" height="3.83"/><rect class="cls-6" x="64.72" y="27.88" width="2.43" height="3.83"/><rect class="cls-6" x="64.72" y="20.9" width="2.43" height="3.83"/><rect class="cls-6" x="64.72" y="13.91" width="2.43" height="3.83"/><rect class="cls-1" x="69.36" y="29.79" width="3.34" height="5.66"/><rect class="cls-6" x="35.03" y="20.9" width="2.43" height="3.83"/><rect class="cls-6" x="49.8" y="13.29" width="2.43" height="3.83"/><rect class="cls-6" x="45.08" y="13.29" width="2.43" height="3.83"/><rect class="cls-6" x="49.8" y="4.45" width="2.43" height="3.83"/><rect class="cls-6" x="45.08" y="4.45" width="2.43" height="3.83"/><rect class="cls-6" x="45.08" y="28.69" width="2.43" height="3.83"/><rect class="cls-6" x="45.08" y="20.99" width="2.43" height="3.83"/><rect class="cls-6" x="35.03" y="13.29" width="2.43" height="3.83"/><rect class="cls-6" x="40.02" y="13.29" width="2.43" height="3.83"/><rect class="cls-6" x="40.02" y="28.5" width="2.43" height="3.83"/><rect class="cls-6" x="40.02" y="20.9" width="2.43" height="3.83"/><rect class="cls-1" x="34.38" y="29.79" width="3.34" height="5.66"/></svg>