<?xml version="1.0" encoding="UTF-8"?>
<svg id="Layer_1" data-name="Layer 1" xmlns="http://www.w3.org/2000/svg" viewBox="0 0 14.09 21.76">
  <defs>
    <style>
      .cls-1, .cls-2 {
        fill: none;
      }

      .cls-1, .cls-2, .cls-3, .cls-4 {
        stroke: #000;
        stroke-miterlimit: 10;
      }

      .cls-2 {
        stroke-width: .75px;
      }

      .cls-4 {
        stroke-width: .5px;
      }
    </style>
  </defs>
  <path class="cls-1" d="M13.59,7.04c0,1.54-.54,2.97-1.45,4.09l-5.12,9.57L1.8,10.94c-.82-1.08-1.3-2.44-1.3-3.9C.5,3.43,3.43.5,7.05.5s6.54,2.93,6.54,6.54Z"/>
  <circle class="cls-2" cx="10" cy="8.92" r="1.71"/>
  <circle class="cls-2" cx="4.46" cy="8.92" r="1.77"/>
  <circle class="cls-3" cx="10.4" cy="4.38" r=".5"/>
  <rect class="cls-4" x="7.56" y="4.17" width="1.41" height="2.85" rx=".54" ry=".54" transform="translate(9.04 -4.35) rotate(60.37)"/>
  <rect class="cls-4" x="9.39" y="5.46" width=".42" height="1.02" rx=".21" ry=".21" transform="translate(-.71 1.33) rotate(-7.66)"/>
  <rect class="cls-4" x="9.78" y="6.35" width=".59" height=".16" rx=".08" ry=".08" transform="translate(1.13 -1.5) rotate(9.03)"/>
  <rect class="cls-4" x="10.32" y="6.4" width=".59" height=".16" rx=".08" ry=".08" transform="translate(1.15 -1.58) rotate(9.03)"/>
  <circle class="cls-4" cx="7.15" cy="6.23" r=".65"/>
  <rect class="cls-4" x="6.06" y="5.83" width="1.34" height="1.54" rx=".67" ry=".67" transform="translate(7.42 -2.81) rotate(49.8)"/>
  <rect class="cls-4" x="6" y="7.51" width="1.92" height=".44" rx=".22" ry=".22" transform="translate(8.76 -2.51) rotate(51.98)"/>
  <rect class="cls-4" x="7.22" y="8.54" width=".57" height=".18" rx=".09" ry=".09" transform="translate(-1.84 15.23) rotate(-84.28)"/>
  <rect class="cls-4" x="6.93" y="9.02" width="1.04" height=".25" rx=".13" ry=".13" transform="translate(17.29 2.64) rotate(95.72)"/>
</svg>