<?xml version="1.0" encoding="UTF-8"?><svg id="Layer_1" xmlns="http://www.w3.org/2000/svg" viewBox="0 0 10.41 4.27"><defs><style>.cls-1{fill:#b3b3b3;}.cls-1,.cls-2,.cls-3{stroke:#000;stroke-miterlimit:10;stroke-width:.25px;}.cls-2{fill:#666;}.cls-3{fill:#fff;}</style></defs><path class="cls-2" d="M7.52,1.28c0,.22-.18.4-.4.4h-.52c-.11-.19-.32-.32-.56-.32h-.14v-.1c0-.42-.34-.76-.76-.76-.06,0-.11,0-.17.02.13-.23.38-.38.66-.38s.5.13.63.34c.08-.08.19-.12.3-.12.25,0,.46.21.46.47v.06h.09c.22,0,.4.18.4.4h0Z"/><path class="cls-1" d="M6.68,2.01c0,.36-.29.65-.65.65h-3.31c-.36,0-.65-.29-.65-.65,0-.25.14-.46.35-.57,0-.05,0-.09,0-.14,0-.64.53-1.17,1.2-1.17.44,0,.82.22,1.03.55.09-.08.21-.14.33-.17.05,0,.11-.02.17-.02.42,0,.76.34.76.76v.1h.14c.24,0,.45.13.56.32.06.1.09.21.09.33h-.01Z"/><path class="cls-3" d="M3.34,2.04c0,.2-.16.35-.35.35H.48c-.19,0-.35-.16-.35-.35s.16-.35.35-.35h1.05c-.08,0-.15-.07-.15-.15s.07-.15.15-.15h1.34c.08,0,.15.07.15.15s-.07.15-.15.15h.12c.2,0,.35.16.35.35Z"/><path class="cls-3" d="M5.31,3.79c0,.2-.23.35-.53.35H1.03c-.28,0-.53-.16-.53-.35s.24-.35.53-.35h1.57c-.12,0-.22-.07-.22-.15s.1-.15.22-.15h2.01c.12,0,.22.07.22.15s-.1.15-.22.15h.18c.29,0,.53.16.53.35Z"/><path class="cls-3" d="M10.29,2.03c0,.16-.13.28-.28.28h-.88c.1.05.17.16.17.29,0,.19-.16.35-.35.35h-3.42c-.19,0-.35-.16-.35-.35,0-.2.16-.35.35-.35h1.71c-.07-.05-.11-.13-.11-.22,0-.15.13-.28.28-.28h2.6c.15,0,.28.13.28.28Z"/></svg>