<?xml version="1.0" encoding="UTF-8"?>
<svg id="Layer_1" data-name="Layer 1" xmlns="http://www.w3.org/2000/svg" viewBox="0 0 12.79 6.7">
  <defs>
    <style>
      .cls-1, .cls-2 {
        stroke: #000;
      }

      .cls-1, .cls-2, .cls-3 {
        stroke-miterlimit: 10;
        stroke-width: .25px;
      }

      .cls-4, .cls-2, .cls-3 {
        fill: none;
      }

      .cls-3 {
        stroke: #fff;
      }
    </style>
  </defs>
  <path class="cls-2" d="M10.16,3.48c-.02,1.73-2.3,3.14-5.05,3.1C2.35,6.55.11,5.09.13,3.36"/>
  <path class="cls-2" d="M.13,4.35C.04,2.61,2.23,1.07,4.98.93c2.75-.14,5.08,1.17,5.17,2.9"/>
  <path class="cls-2" d="M10.23,4.03l1.93,1.11c.22.13.5-.03.5-.29v-2.23c0-.26-.28-.42-.5-.29l-1.93,1.11c-.22.13-.22.45,0,.58Z"/>
  <circle class="cls-1" cx="1.79" cy="3.74" r=".59"/>
  <path class="cls-4" d="M5.6,4.73c.24.01.45-.18.68-.17.16,0,.32.1.42.23s.17.28.23.43c.03.07.06.15.07.23,0,.14-.07.28-.18.36s-.25.13-.39.13c-.32.02-.64-.14-.83-.39"/>
  <path class="cls-2" d="M5.33,4.31l.56.09c.09.02.19.03.28.07.15.08.26.24.28.41s-.03.34-.14.48c-.16.21-.43.32-.69.31s-.51-.15-.67-.36"/>
  <path class="cls-3" d="M1.85,3.38s0,.13.03.13.05-.07.05-.13c-.03-.03-.07-.01-.08.04"/>
  <path class="cls-2" d="M2.34,1.39C2.85.77,3.61.38,4.4.22s1.61-.11,2.4.06c.37.08.73.18,1.05.38s.59.49.68.86"/>
  <path class="cls-2" d="M4.12.89l.06-.29"/>
  <path class="cls-2" d="M4.85.93c.13-.16.21-.36.24-.57"/>
  <path class="cls-2" d="M5.73.94c.11-.06.19-.17.24-.28"/>
  <path class="cls-2" d="M6.8.96c.13,0,.25-.11.25-.24"/>
</svg>