<?xml version="1.0" encoding="UTF-8"?>
<svg id="Layer_1" data-name="Layer 1" xmlns="http://www.w3.org/2000/svg" viewBox="0 0 13.64 16.53">
  <defs>
    <style>
      .cls-1, .cls-2, .cls-3 {
        stroke: #000;
        stroke-miterlimit: 10;
      }

      .cls-1, .cls-3 {
        stroke-width: .25px;
      }

      .cls-2 {
        stroke-width: .75px;
      }

      .cls-2, .cls-3 {
        fill: none;
      }
    </style>
  </defs>
  <path class="cls-2" d="M4.33,13.05C1,11.59-.53,7.65.93,4.33,2.38,1,6.32-.53,9.64.93"/>
  <path class="cls-3" d="M9.68,15.38c-.82,0-1.48-1.08-1.46-2.38.02-1.3.7-2.36,1.52-2.35"/>
  <path class="cls-3" d="M9.27,10.66c.82-.04,1.54.99,1.61,2.28.07,1.29-.55,2.39-1.37,2.43"/>
  <rect class="cls-2" x="3.92" y="12.8" width="2.61" height="1.53" rx=".76" ry=".76" transform="translate(8.21 -.66) rotate(32.91)"/>
  <path class="cls-3" d="M2.73,11.46l-.67-.5c.27-.37.8-.44,1.17-.17s.44.8.17,1.17l-.67-.5Z"/>
  <path class="cls-3" d="M.96,8.09l-.16-.82c.45-.09.89.21.98.66s-.21.89-.66.98l-.16-.82Z"/>
  <path class="cls-3" d="M.88,6.27l.05-.83c.46.03.81.43.78.89s-.43.81-.89.78l.05-.83Z"/>
  <path class="cls-3" d="M3.84,1.57l.7-.46c.25.38.14.91-.24,1.16s-.91.14-1.16-.24l.7-.46Z"/>
  <path class="cls-3" d="M5.57.73l.81-.21c.12.44-.15.9-.6,1.02s-.9-.15-1.02-.6l.81-.21Z"/>
  <path class="cls-3" d="M7.47.62l.83.09c-.05.46-.47.79-.92.74s-.79-.47-.74-.92l.83.09Z"/>
  <path class="cls-3" d="M1.4,4.46l.37-.75c.41.21.58.71.37,1.12s-.71.58-1.12.37l.37-.75Z"/>
  <path class="cls-3" d="M2.44,2.87l.59-.59c.32.32.32.86,0,1.18s-.86.32-1.18,0l.59-.59Z"/>
  <path class="cls-3" d="M1.59,9.9l-.42-.72c.4-.23.91-.09,1.14.31s.09.91-.31,1.14l-.42-.72Z"/>
  <path class="cls-3" d="M9.34,1.02c.11.85.78,1.59,1.61,1.79.49.12,1,.06,1.49.15s1.01.41,1.07.91c.05.44-.26.83-.57,1.13-.44.43-.93.82-1.5,1.06-.75.31-1.63.36-2.27.86-.49.39-.76,1-.88,1.61-.04.23-.07.48,0,.7.07.22.22.41.39.58.31.3.67.55,1.06.72"/>
  <path class="cls-3" d="M9.27,15.53l-.22.38c-.13.22.03.5.29.5h.44c.26,0,.42-.28.29-.5l-.22-.38c-.13-.22-.45-.22-.58,0Z"/>
  <circle class="cls-1" cx="9.56" cy="11.46" r=".28"/>
</svg>