<?xml version="1.0" encoding="UTF-8"?><svg id="Layer_1" xmlns="http://www.w3.org/2000/svg" viewBox="0 0 12.63 6.64"><defs><style>.cls-1,.cls-2,.cls-3,.cls-4,.cls-5,.cls-6,.cls-7{fill:none;}.cls-8,.cls-2,.cls-3,.cls-4,.cls-5,.cls-6,.cls-7{stroke-miterlimit:10;}.cls-8,.cls-2,.cls-4,.cls-5,.cls-6,.cls-7{stroke:#000;}.cls-8,.cls-3,.cls-5{stroke-width:.25px;}.cls-2{stroke-width:.1px;}.cls-3{stroke:#fff;}.cls-4{stroke-width:.4px;}.cls-6{stroke-width:.2px;}.cls-7{stroke-width:.3px;}</style></defs><path class="cls-4" d="M10.34,3.54c-.02,1.62-1.91,2.93-4.2,2.9-2.29-.03-4.16-1.39-4.14-3.01"/><path class="cls-4" d="M2.01,4.35c-.07-1.62,1.75-3.05,4.03-3.18,2.29-.13,4.22,1.09,4.3,2.71"/><path class="cls-4" d="M10.41,4.05l1.61,1.04c.18.12.42-.03.42-.27v-2.08c0-.24-.23-.39-.42-.27l-1.61,1.04c-.18.12-.18.42,0,.54h0Z"/><ellipse class="cls-8" cx="3.39" cy="3.78" rx=".49" ry=".55"/><path class="cls-1" d="M6.56,4.72c.2,0,.37-.17.57-.16.13,0,.27.09.35.21s.14.26.19.4c.02.07.05.14.06.21,0,.13-.06.26-.15.34s-.21.12-.32.12c-.27.02-.53-.13-.69-.36"/><path class="cls-6" d="M6.33,4.32l.47.08c.07.02.16.03.23.07.12.07.22.22.23.38s-.02.32-.12.45c-.13.2-.36.3-.57.29s-.42-.14-.56-.34"/><path class="cls-3" d="M3.44,3.46s0,.12.02.12.04-.07.04-.12c-.02-.03-.06,0-.07.04"/><path class="cls-4" d="M3.84,1.59c.43-.58,1.06-.93,1.71-1.09s1.34-.1,2,.06c.31.07.61.17.87.35.27.19.49.46.57.8"/><path class="cls-5" d="M5.33,1.13l.05-.27"/><path class="cls-5" d="M5.93,1.17c.11-.15.17-.34.2-.53"/><path class="cls-5" d="M6.66,1.17c.09-.06.16-.16.2-.26"/><path class="cls-5" d="M7.56,1.2c.11,0,.21-.1.21-.22"/><path class="cls-7" d="M.29,2.33c.06.65-.05,1.31.09,1.94.04.17.1.35.22.48s.32.21.5.15c.17-.06.27-.22.31-.39s.04-.34.08-.5c-.06.04-.12.08-.18.11"/><path class="cls-6" d="M.26,2.37s-.04-.09-.09-.09-.08.06-.07.1c.02.05.08.07.13.08.08.01.17.01.22-.05.05-.07.02-.18-.06-.21s-.17,0-.23.06c-.03.03-.04.07-.04.11s.05.08.09.07"/><path class="cls-2" d="M.31,2.22c0-.74-.02-1.48-.05-2.21"/></svg>