<?xml version="1.0" encoding="UTF-8"?><svg id="Layer_1" xmlns="http://www.w3.org/2000/svg" viewBox="0 0 24.6 38.9"><defs><style>.cls-1{fill:#b4d782;stroke:#231f20;stroke-miterlimit:10;}.cls-2{fill:#231f20;}.cls-3{fill:#be1e2d;}</style></defs><path class="cls-1" d="M21.99,19.02h.05l-9.73,18.79L2.58,19.02h.03c-1.33-1.91-2.11-4.22-2.11-6.72C.5,5.78,5.78.5,12.3.5s11.8,5.28,11.8,11.8c0,2.5-.78,4.81-2.11,6.72Z"/><rect class="cls-2" x="9.06" y="4.44" width="1.35" height="23.63" rx=".56" ry=".56"/><path class="cls-3" d="M20.61,10.1l-9.45,3.89c-.36.15-.75-.12-.75-.5v-7.78c0-.39.39-.65.75-.5l9.45,3.89c.45.18.45.82,0,1.01Z"/><ellipse class="cls-2" cx="13.28" cy="28.06" rx="1.3" ry=".82"/></svg>