<?xml version="1.0" encoding="UTF-8"?><svg id="Layer_1" xmlns="http://www.w3.org/2000/svg" viewBox="0 0 14.59 9.93"><defs><style>.cls-1{fill:#b3b3b3;}.cls-1,.cls-2{stroke:#000;}.cls-1,.cls-2,.cls-3{stroke-miterlimit:10;stroke-width:.25px;}.cls-2{fill:#666;}.cls-3{fill:none;stroke:#0071bc;}</style></defs><path class="cls-2" d="M14.47,3.17c0,.58-.48,1.05-1.06,1.05h-1.38c-.29-.51-.85-.85-1.48-.85h-.37c.01-.09.02-.18.02-.27,0-1.1-.89-1.99-1.99-1.99-.15,0-.3.02-.44.05.33-.6.99-1.01,1.74-1.01.7,0,1.32.35,1.67.89.21-.2.49-.31.8-.31.67,0,1.22.55,1.22,1.23,0,.05-.01.11-.02.16h.23c.58,0,1.06.47,1.06,1.05Z"/><path class="cls-1" d="M12.27,5.06c0,.95-.77,1.72-1.72,1.72H1.85c-.95,0-1.72-.77-1.72-1.72,0-.65.37-1.22.91-1.5-.02-.12-.03-.24-.03-.36,0-1.7,1.42-3.08,3.18-3.08,1.15,0,2.16.58,2.72,1.45.24-.22.54-.37.86-.44.14-.03.29-.05.44-.05,1.1,0,1.99.89,1.99,1.99,0,.09-.01.18-.02.27h.37c.63,0,1.19.34,1.48.85.15.25.24.55.24.86h0Z"/><line class="cls-3" x1="4.41" y1="9.01" x2="3.72" y2="9.85"/><line class="cls-3" x1="5.09" y1="7.18" x2="4.55" y2="7.95"/><line class="cls-3" x1="6.45" y1="7.2" x2="5.95" y2="7.94"/><line class="cls-3" x1="5.98" y1="9.06" x2="5.48" y2="9.8"/><line class="cls-3" x1="5.46" y1="8.33" x2="5.1" y2="8.85"/></svg>