<?xml version="1.0" encoding="UTF-8"?><svg id="Layer_1" xmlns="http://www.w3.org/2000/svg" width="5.71" height="2.78" viewBox="0 0 5.71 2.78"><defs><style>.cls-1{fill:#b3b3b3;}.cls-1,.cls-2{stroke:#000;stroke-miterlimit:10;stroke-width:.25px;}.cls-2{fill:#666;}</style></defs><path class="cls-2" d="M5.58,1.28c0,.22-.18.4-.4.4h-.52c-.11-.19-.32-.32-.56-.32h-.14s0-.07,0-.1c0-.42-.34-.76-.76-.76-.06,0-.11,0-.17.02.13-.23.38-.38.66-.38.27,0,.5.13.63.34.08-.08.19-.12.3-.12.25,0,.46.21.46.47,0,.02,0,.04,0,.06h.09c.22,0,.4.18.4.4Z"/><path class="cls-1" d="M4.74,2c0,.36-.29.65-.65.65H.78c-.36,0-.65-.29-.65-.65,0-.25.14-.46.35-.57,0-.05-.01-.09-.01-.14C.46.65,1,.12,1.67.12c.44,0,.82.22,1.03.55.09-.08.21-.14.33-.17.05-.01.11-.02.17-.02.42,0,.76.34.76.76,0,.03,0,.07,0,.1h.14c.24,0,.45.13.56.32.06.1.09.21.09.33Z"/></svg>