<?xml version="1.0" encoding="UTF-8"?><svg id="Layer_1" xmlns="http://www.w3.org/2000/svg" viewBox="0 0 24.6 38.9"><defs><style>.cls-1{fill:#231f20;}.cls-2{fill:#f9c5dc;stroke:#231f20;stroke-miterlimit:10;}</style></defs><path class="cls-2" d="M21.99,19.02h.05l-9.73,18.79L2.58,19.02h.03c-1.33-1.91-2.11-4.22-2.11-6.72C.5,5.78,5.78.5,12.3.5s11.8,5.28,11.8,11.8c0,2.5-.78,4.81-2.11,6.72Z"/><rect class="cls-1" x="4.53" y="18.02" width="15.55" height="1.69"/><polygon class="cls-1" points="20.07 8.89 20.07 8.18 19.24 8.18 18.08 8.18 17.24 8.18 17.24 8.89 18.05 8.89 17.69 16.92 17.24 16.92 17.24 17.63 17.66 17.63 19.66 17.63 20.07 17.63 20.07 16.92 19.63 16.92 19.28 8.89 20.07 8.89"/><polygon class="cls-1" points="15.88 8.89 15.88 8.18 15.05 8.18 13.89 8.18 13.05 8.18 13.05 8.89 13.86 8.89 13.5 16.92 13.05 16.92 13.05 17.63 13.47 17.63 15.47 17.63 15.88 17.63 15.88 16.92 15.44 16.92 15.09 8.89 15.88 8.89"/><polygon class="cls-1" points="11.69 8.89 11.69 8.18 10.86 8.18 9.7 8.18 8.86 8.18 8.86 8.89 9.67 8.89 9.31 16.92 8.86 16.92 8.86 17.63 9.28 17.63 11.28 17.63 11.69 17.63 11.69 16.92 11.25 16.92 10.89 8.89 11.69 8.89"/><polygon class="cls-1" points="7.36 8.89 7.36 8.18 6.53 8.18 5.37 8.18 4.53 8.18 4.53 8.89 5.34 8.89 4.98 16.92 4.53 16.92 4.53 17.63 4.95 17.63 6.95 17.63 7.36 17.63 7.36 16.92 6.92 16.92 6.57 8.89 7.36 8.89"/><rect class="cls-1" x="3.88" y="6.63" width="16.83" height="1.16"/><polygon class="cls-1" points="12.3 2.28 20.72 6.24 3.88 6.24 12.3 2.28"/></svg>