<?xml version="1.0" encoding="UTF-8"?><svg id="Layer_1" xmlns="http://www.w3.org/2000/svg" viewBox="0 0 24.6 38.9"><defs><style>.cls-1{fill:#231f20;}.cls-2{fill:#ffe073;stroke:#231f20;stroke-miterlimit:10;}</style></defs><path class="cls-2" d="M21.99,19.02h.05l-9.73,18.79L2.58,19.02h.03c-1.33-1.91-2.11-4.22-2.11-6.72C.5,5.78,5.78.5,12.3.5s11.8,5.28,11.8,11.8c0,2.5-.78,4.81-2.11,6.72Z"/><path class="cls-1" d="M14.07,12.52c1.38-.68,2.34-2.11,2.34-3.78,0-2.32-1.84-4.2-4.11-4.2s-4.11,1.88-4.11,4.2c0,1.67.96,3.1,2.34,3.78-2.55,1.06-4.42,4.37-4.42,8.28,0,.18.01.35.02.52h12.33c0-.17.02-.35.02-.52,0-3.92-1.86-7.22-4.42-8.28Z"/></svg>