<?xml version="1.0" encoding="UTF-8"?><svg id="Layer_1" xmlns="http://www.w3.org/2000/svg" viewBox="0 0 76.04 37.07"><defs><style>.cls-1{fill:#6f4337;stroke:#3c2415;}.cls-1,.cls-2,.cls-3{stroke-miterlimit:10;stroke-width:.2px;}.cls-2{fill:#66bf6c;stroke:#003a17;}.cls-3{fill:#083f1b;stroke:#002702;}</style></defs><rect class="cls-1" x="53.41" y="11.5" width="3.27" height="25.29"/><rect class="cls-1" x="38.52" y="18.7" width="1.63" height="18.27"/><rect class="cls-1" x="69.45" y="22.84" width="2.34" height="14.07"/><rect class="cls-1" x="12.94" y="12.56" width="3.7" height="24.23"/><rect class="cls-1" x="4.25" y="22.84" width="2.34" height="14.07"/><path class="cls-2" d="M5.68,24.68h0s0,0,0,0c-1.51,1.65-4.24.29-3.83-1.91h0s0,0,0,0c-2.19-.48-2.37-3.53-.26-4.27h0,0c-.67-2.14,1.87-3.82,3.57-2.36h0s0,0,0,0c1.51-1.65,4.24-.29,3.83,1.91h0s0,0,0,0c2.19.48,2.37,3.53.26,4.27h0,0c.67,2.14-1.87,3.82-3.57,2.36Z"/><path class="cls-2" d="M70.88,24.68h0s0,0,0,0c-1.51,1.65-4.24.29-3.83-1.91h0s0,0,0,0c-2.19-.48-2.37-3.53-.26-4.27h0,0c-.67-2.14,1.87-3.82,3.57-2.36h0s0,0,0,0c1.51-1.65,4.24-.29,3.83,1.91h0s0,0,0,0c2.19.48,2.37,3.53.26,4.27h0,0c.67,2.14-1.87,3.82-3.57,2.36Z"/><path class="cls-2" d="M16.24,16.5l-.74-.67-.49.76c-1.33,2.07-4.55.99-4.35-1.47l.06-.77-.71.09c-2.45.3-3.67-2.89-1.64-4.29l.64-.44-.64-.63c-1.74-1.72-.04-4.63,2.31-3.96l.96.27.13-.99c.31-2.43,3.65-2.85,4.55-.57l.33.83.66-.41c2.09-1.32,4.55,1.05,3.31,3.19l-.36.62.73.25c2.33.78,2.07,4.17-.36,4.58l-.89.15.32.94c.79,2.31-2.01,4.16-3.82,2.52Z"/><polygon class="cls-3" points="35.16 36.79 31.36 29 34.28 29 30.42 22.24 32.54 22.24 25.49 6.04 18.45 22.24 20.56 22.24 16.7 29 19.63 29 15.82 36.79 35.16 36.79"/><path class="cls-2" d="M40.08,21.74l-.34-.31-.18.28c-1.12,1.73-3.82.81-3.64-1.25l.02-.19-.12.02c-2.06.26-3.09-2.42-1.38-3.6l.15-.11-.24-.24c-1.46-1.44-.05-3.88,1.93-3.33l.44.12.06-.45c.27-2.03,3.07-2.37,3.82-.47l.13.32.16-.1c1.76-1.11,3.82.89,2.77,2.69l-.06.11.18.06c1.96.65,1.75,3.49-.28,3.84l-.33.06.15.44c.66,1.93-1.68,3.48-3.21,2.12Z"/><path class="cls-2" d="M56.2,16.14l-1.09-.88-.44.45c-2.41,2.5-6.58.2-5.75-3.17h0s0,0,0,0c-3.43-.56-3.91-5.3-.66-6.53l.59-.22-.38-1.35c-.9-3.19,2.83-5.65,5.41-3.57l1.09.88.44-.45c2.41-2.5,6.58-.2,5.75,3.17h0s0,0,0,0c3.43.56,3.91,5.3.66,6.53l-.59.22.38,1.35c.9,3.19-2.83,5.65-5.41,3.57Z"/><polygon class="cls-3" points="51.84 36.9 49.38 32.31 51.27 32.31 48.77 28.32 50.14 28.32 45.59 18.76 41.03 28.32 42.4 28.32 39.91 32.31 41.8 32.31 39.34 36.9 51.84 36.9"/><polygon class="cls-3" points="70.03 36.83 66.99 30.42 69.33 30.42 66.25 24.85 67.94 24.85 62.32 11.5 56.71 24.85 58.4 24.85 55.32 30.42 57.65 30.42 54.62 36.83 70.03 36.83"/></svg>