<?xml version="1.0" encoding="UTF-8"?><svg id="Layer_1" xmlns="http://www.w3.org/2000/svg" viewBox="0 0 24.6 38.9"><defs><style>.cls-1{fill:#b9e1d8;stroke:#231f20;}.cls-1,.cls-2{stroke-miterlimit:10;}.cls-3{fill:#18713a;}.cls-2{stroke:#603913;stroke-width:.1px;}.cls-2,.cls-4{fill:#754c29;}</style></defs><path class="cls-1" d="M21.99,19.02h.05l-9.73,18.79L2.58,19.02h.03c-1.33-1.91-2.11-4.22-2.11-6.72C.5,5.78,5.78.5,12.3.5s11.8,5.28,11.8,11.8c0,2.5-.78,4.81-2.11,6.72Z"/><path class="cls-3" d="M19.8,11.07c.25-.27.41-.63.41-1.04,0-.81-.63-1.47-1.42-1.47,0,0,0,0,0,0,.16-.27.26-.59.26-.93,0-.98-.77-1.78-1.71-1.78-.59,0-1.11.31-1.42.79.03-.14.05-.28.05-.42,0-1.34-1.16-2.43-2.6-2.43-1.25,0-2.29.83-2.54,1.92-.47-.45-1.09-.73-1.77-.73-1.45,0-2.63,1.22-2.63,2.73,0,.53.15,1.03.41,1.45-1.63.1-2.92,1.11-2.92,2.34,0,1.3,1.43,2.36,3.19,2.36.01,0,.03,0,.04,0-.02.14-.04.28-.04.43,0,1.54,1.2,2.79,2.68,2.79.65,0,1.24-.25,1.7-.65.58.67,1.47,1.11,2.47,1.11,1.67,0,3.02-1.19,3.16-2.71.23.05.47.08.72.08,1.57,0,2.83-1,2.83-2.23,0-.63-.34-1.2-.88-1.61ZM15.65,7.45s-.03-.01-.04-.02c.02-.03.04-.06.05-.09,0,.03,0,.07-.01.11Z"/><rect class="cls-2" x="10.76" y="14.42" width="3.07" height="11.95"/><path class="cls-4" d="M11.32,15.34l.07-.48c.04-.28-.28-.43-.46-.19-.08.11-.11.23-.11.36,0,.32.48.32.5,0,.08-1.15-.93-1.87-1.49-2.74l-.39.3c.38.32.77.63,1.12.97.3.29.56.61.66,1.03.05.23.44.25.48,0,.08-.47-.06-.94-.39-1.29-.09-.1-.26-.09-.35,0-.11.11-.08.25,0,.35.25.33.51.65.76.98.07.09.22.09.3.04.1-.06.14-.17.11-.28-.13-.66.08-1.32.17-1.97.05-.34.06-.67.05-1.01s-.03-.71.04-1.06c.06-.32-.37-.43-.48-.13-.15.4-.04.83.05,1.23.09.44.03.86-.05,1.3-.15.76-.27,1.6.28,2.23.1.11.25.08.35,0,.26-.21.44-.48.57-.79.08-.19-.14-.35-.31-.31-.18.04-.32.15-.41.31h.43c-.23-.32-.33-.72-.23-1.11.11-.43.46-.74.66-1.13.15-.29-.26-.52-.43-.25-.28.44-.56.9-.62,1.43-.05.47.11.99.51,1.27.34.24.85.26,1.19,0,.2-.15.29-.36.36-.59s.18-.4.4-.52l-.3-.39c-.41.32-.81.64-1.22.96-.33.27-.64.6-.55,1.06.05.25.42.23.48,0,.12-.45.08-.9-.1-1.33-.08-.18-.16-.36-.15-.56,0-.18.08-.34.2-.47l-.43-.18c0,.44.01.88.1,1.31.07.34.3.65.68.58.27-.05.21-.52-.07-.49-.51.05-.22-.88-.15-1.11.14-.49.35-.94.61-1.38l-.43-.25c-.17.35-.34.69-.52,1.03-.08.16-.16.33-.26.48-.04.06-.08.12-.13.16-.02.01-.03.03-.05.04-.02,0,.03.01-.03-.02l.18.24c-.07-1.25,0-2.5.2-3.74.02-.13-.03-.27-.17-.31-.12-.03-.29.04-.31.17-.21,1.28-.29,2.57-.22,3.87,0,.12.07.2.18.24.44.17.73-.31.9-.64.23-.43.45-.86.66-1.29.14-.29-.26-.53-.43-.25-.34.56-.6,1.17-.74,1.81-.07.32-.13.66,0,.96.12.28.4.49.71.46l-.07-.49s.03.01.02-.01c-.02-.04-.04-.08-.06-.12-.04-.12-.05-.25-.06-.37-.03-.3-.05-.6-.04-.91,0-.21-.28-.33-.43-.18-.31.33-.43.79-.29,1.22.07.22.18.42.23.65s.04.48-.02.71h.48c-.03-.14.09-.27.18-.36.13-.13.28-.24.43-.36.34-.27.68-.54,1.02-.81.23-.18-.06-.53-.3-.39-.19.11-.35.25-.46.43-.11.17-.14.37-.22.55-.12.27-.45.31-.69.17-.3-.17-.37-.58-.32-.89.06-.43.32-.81.55-1.17l-.43-.25c-.24.46-.63.81-.73,1.34-.09.49,0,1,.3,1.41.11.14.33.18.43,0,.03-.05.05-.07.11-.08l-.31-.31c-.09.23-.25.41-.44.57h.35c-.47-.54-.22-1.36-.11-1.97.07-.4.11-.8.04-1.2-.07-.36-.21-.73-.07-1.1l-.48-.13c-.14.72,0,1.46-.11,2.19s-.3,1.41-.15,2.12l.42-.24c-.25-.33-.51-.65-.76-.98l-.35.35c.2.21.31.51.26.8h.48c-.11-.46-.39-.85-.72-1.18-.37-.37-.79-.7-1.19-1.03-.2-.17-.56.05-.39.3.5.77,1.49,1.47,1.42,2.48h.5c0-.05.01-.07.04-.11l-.46-.19-.07.48c-.02.13.03.27.17.31.12.03.29-.04.31-.17h0Z"/><path class="cls-4" d="M10.99,25.87c-.22.24-.47.46-.75.63-.11.07-.16.22-.09.34s.22.15.34.09c.37-.17.64-.53.72-.93.02-.12-.02-.25-.14-.29-.11-.04-.26-.01-.31.1-.14.29-.33.53-.57.74-.07.06-.09.19-.05.27.04.1.13.14.23.15,1.26.11,2.52,0,3.77-.13l-.13-.47c-.29.15-.62.19-.93.14l-.07.49h1.18c.17,0,.34-.21.22-.37-.26-.33-.43-.71-.51-1.12l-.46.19.18.35.09.17s.03.05.04.08h0s.02.02.01-.09l.09-.09c.06-.04.07,0,.03,0-.02,0-.05,0-.08,0-.05,0-.1,0-.15,0-.1,0-.2,0-.31,0-.2,0-.41,0-.61,0-.4,0-.8,0-1.2,0-.19,0-.4-.02-.59.01s-.36.22-.31.43c.04.18.21.28.38.31.2.04.41.05.62.07.45.04.89.04,1.34,0,.13,0,.25-.11.25-.25,0-.13-.11-.26-.25-.25-.42.03-.84.03-1.27,0-.19-.01-.39-.02-.59-.06-.02,0-.03,0-.05-.01-.06-.02,0,0,0,0,0,.01.02.02.03.03l-.02.19h-.02s-.03,0,0,.02c-.02,0-.02,0,0,0,.06,0,.12,0,.18,0,.86,0,1.72,0,2.58,0,.14,0,.29-.02.37-.15.07-.11.07-.24.01-.36-.1-.22-.22-.44-.33-.65-.06-.11-.2-.15-.31-.1-.12.05-.17.17-.14.29.09.45.28.88.56,1.24l.22-.38h-1.18c-.27,0-.35.43-.07.48.45.09.91.02,1.32-.19.21-.11.12-.49-.13-.47-1.25.12-2.52.24-3.77.13l.18.43c.27-.23.49-.52.65-.84l-.46-.19c-.03.16-.07.27-.17.4-.02.02-.09.1-.13.13-.04.03-.12.08-.18.11l.25.43c.31-.2.6-.44.85-.71.09-.1.1-.25,0-.35-.09-.09-.26-.1-.35,0h0Z"/><circle class="cls-3" cx="6.22" cy="8.8" r="1.46"/></svg>