<?xml version="1.0" encoding="UTF-8"?><svg id="Layer_1" xmlns="http://www.w3.org/2000/svg" width="14.6" height="10.6" viewBox="0 0 14.6 10.6"><defs><style>.cls-1{fill:#b3b3b3;}.cls-1,.cls-2{stroke:#000;}.cls-1,.cls-2,.cls-3{stroke-miterlimit:10;stroke-width:.25px;}.cls-2{fill:#666;}.cls-3{fill:none;stroke:#0071bc;}</style></defs><path class="cls-2" d="M14.47,3.16c0,.58-.48,1.05-1.06,1.05h-1.38c-.29-.51-.85-.85-1.48-.85h-.37c.01-.09.02-.18.02-.27,0-1.1-.89-1.99-1.99-1.99-.15,0-.3.02-.44.05.33-.6.99-1.01,1.74-1.01.7,0,1.32.35,1.67.89.21-.2.49-.31.8-.31.67,0,1.22.55,1.22,1.23,0,.05-.01.11-.02.16h.23c.58,0,1.06.47,1.06,1.05Z"/><path class="cls-1" d="M12.27,5.06c0,.95-.77,1.72-1.72,1.72H1.85c-.95,0-1.72-.77-1.72-1.72,0-.65.37-1.22.91-1.5-.02-.12-.03-.24-.03-.36C1,1.5,2.43.12,4.19.12c1.15,0,2.16.58,2.72,1.45.24-.22.54-.37.86-.44.14-.03.29-.05.44-.05,1.1,0,1.99.89,1.99,1.99,0,.09-.01.18-.02.27h.37c.63,0,1.19.34,1.48.85.15.25.24.55.24.86Z"/><line class="cls-3" x1="2.73" y1="7.77" x2="2.04" y2="8.61"/><line class="cls-3" x1="3.73" y1="8.19" x2="3.23" y2="8.91"/><line class="cls-3" x1="2.39" y1="9.79" x2="1.78" y2="10.53"/><line class="cls-3" x1="5.86" y1="8.01" x2="5.3" y2="8.82"/><line class="cls-3" x1="8.44" y1="7.41" x2="7.78" y2="8.19"/><line class="cls-3" x1="5.09" y1="7.18" x2="4.55" y2="7.95"/><line class="cls-3" x1="7.15" y1="7.29" x2="6.63" y2="8.03"/><line class="cls-3" x1="6.4" y1="8.91" x2="5.9" y2="9.65"/><line class="cls-3" x1="4.82" y1="9.68" x2="4.4" y2="10.15"/><line class="cls-3" x1="4.17" y1="9.28" x2="3.64" y2="9.91"/><line class="cls-3" x1="7.78" y1="9.03" x2="7.28" y2="9.6"/></svg>