<?xml version="1.0" encoding="UTF-8"?><svg id="Layer_1" xmlns="http://www.w3.org/2000/svg" viewBox="0 0 24.6 38.9"><defs><style>.cls-1{fill:#231f20;}.cls-2{fill:#c39b81;stroke:#231f20;stroke-miterlimit:10;}</style></defs><path class="cls-2" d="M21.99,19.02h.05l-9.73,18.79L2.58,19.02h.03c-1.33-1.91-2.11-4.22-2.11-6.72C.5,5.78,5.78.5,12.3.5s11.8,5.28,11.8,11.8c0,2.5-.78,4.81-2.11,6.72Z"/><path class="cls-1" d="M11.63,4.1h-.24c-.11,0-.2.09-.2.2v2.96c-.19-.13-.41-.2-.65-.23v-2.73c0-.11-.09-.2-.2-.2h-.24c-.11,0-.2.09-.2.2v2.72h-.65v-2.72c0-.11-.09-.2-.2-.2h-.24c-.11,0-.2.09-.2.2v2.73c-.23.03-.45.1-.64.23v-2.96c0-.11-.09-.2-.2-.2h-.24c-.11,0-.2.09-.2.2v6.39c0,.75.57,1.36,1.29,1.45v12.95c0,.47.38.86.86.86h.24c.47,0,.86-.38.86-.86v-12.95c.73-.09,1.29-.7,1.29-1.45v-6.39c0-.11-.09-.2-.2-.2Z"/><path class="cls-1" d="M17.55,10.34c0-3.45-1.65-6.25-3.68-6.25v20.99c0,.47.38.86.86.86h.24c.47,0,.86-.38.86-.86v-9.46c1.03-1.11,1.72-3.06,1.72-5.28Z"/></svg>