<?xml version="1.0" encoding="UTF-8"?><svg id="Layer_1" xmlns="http://www.w3.org/2000/svg" width="14.6" height="8.78" viewBox="0 0 14.6 8.78"><defs><style>.cls-1{fill:none;}.cls-1,.cls-2,.cls-3,.cls-4{stroke:#000;stroke-miterlimit:10;stroke-width:.25px;}.cls-2{fill:#b3b3b3;}.cls-3{fill:#666;}.cls-4{fill:#eee153;}</style></defs><path class="cls-3" d="M14.47,5.03c0,.58-.48,1.05-1.06,1.05h-1.38c-.29-.51-.85-.85-1.48-.85h-.37c.01-.09.02-.18.02-.27,0-.3-.07-.59-.19-.85.28-.3.45-.71.45-1.15,0-.29-.07-.57-.21-.81.39.15.71.41.93.75.21-.2.49-.31.8-.31.67,0,1.22.55,1.22,1.23,0,.05-.01.11-.02.16h.23c.58,0,1.06.47,1.06,1.05Z"/><path class="cls-4" d="M10.47,2.96c0,.44-.17.85-.45,1.15-.32-.67-1-1.14-1.8-1.14-.15,0-.3.02-.44.05-.25.05-.48.16-.69.31-.03-.12-.04-.24-.04-.37,0-.95.76-1.71,1.71-1.71.65,0,1.22.36,1.5.9.14.24.21.52.21.81Z"/><path class="cls-2" d="M12.27,6.94c0,.95-.77,1.72-1.72,1.72H1.85c-.95,0-1.72-.77-1.72-1.72,0-.65.37-1.22.91-1.5-.02-.12-.03-.24-.03-.36,0-1.7,1.43-3.07,3.19-3.07,1.15,0,2.16.58,2.72,1.45.05-.05.11-.09.17-.13.21-.15.44-.26.69-.31.14-.03.29-.05.44-.05.8,0,1.48.47,1.8,1.14.12.26.19.55.19.85,0,.09-.01.18-.02.27h.37c.63,0,1.19.34,1.48.85.15.25.24.55.24.86Z"/><line class="cls-1" x1="7.36" y1=".27" x2="7.8" y2="1.05"/><line class="cls-1" x1="6.44" y1="1.09" x2="7.05" y2="1.75"/><line class="cls-1" x1="8.76" x2="8.76" y2=".78"/><line class="cls-1" x1="10.06" y1=".27" x2="9.65" y2="1.05"/><line class="cls-1" x1="11.09" y1="1.1" x2="10.39" y2="1.74"/></svg>