<?xml version="1.0" encoding="UTF-8"?><svg id="Layer_1" xmlns="http://www.w3.org/2000/svg" viewBox="0 0 15.82 20.07"><defs><style>.cls-1,.cls-2{fill:none;}.cls-1,.cls-2,.cls-3{stroke:#000;stroke-miterlimit:10;}.cls-2{stroke-width:.25px;}.cls-3{fill:#f7af46;}</style></defs><path class="cls-3" d="M15.32,6.64c0,1.45-.51,2.78-1.35,3.83l-4.8,8.58-4.74-8.51v-.02c-.88-1.05-1.39-2.4-1.39-3.87C3.04,3.25,5.78.5,9.17.5s6.14,2.75,6.14,6.14Z"/><path class="cls-1" d="M12.05,10.21h.03s-2.71-5.19-2.71-5.19h-.03c.09.41.2.83.35,1.26.6,1.75,1.56,3.05,2.36,3.92Z"/><path class="cls-1" d="M6.28,10.22h.03c.8-.64,2.21-2.03,2.61-4.14.07-.35.1-.69.11-1.01,0,0-.02,0-.03-.01l-2.72,5.16Z"/><path class="cls-2" d="M8.79,3.43c.34.52.64,1.05.89,1.58"/><path class="cls-2" d="M8.79,4.79l.77-1.35"/></svg>