<?xml version="1.0" encoding="UTF-8"?>
<svg id="Layer_1" data-name="Layer 1" xmlns="http://www.w3.org/2000/svg" viewBox="0 0 15.3 13.84">
  <defs>
    <style>
      .cls-1 {
        fill: none;
        stroke-width: .5px;
      }

      .cls-1, .cls-2 {
        stroke: #000;
        stroke-miterlimit: 10;
      }
    </style>
  </defs>
  <path class="cls-2" d="M6.65,6.02h6.15c0,4.02-2.77,7.32-6.15,7.32S.5,10.04.5,6.02h6.15Z"/>
  <path class="cls-1" d="M12.62,8.19v-2.04c1.4.01,2.42,1.06,2.43,2.04.01,1.11-1.26,2.3-2.85,2.04,0-.28.02-.63.1-1.01.08-.41.21-.76.32-1.03Z"/>
  <path class="cls-1" d="M4.1.22c.37.21.74.51.77.89.06.97-2.2,1.67-2.05,2.23.13.51,2.02.28,2.14.79.07.28-.46.65-.86.89"/>
  <path class="cls-1" d="M7.92,1.57c.25.14.51.35.53.61.04.67-1.51,1.14-1.41,1.53.09.35,1.39.19,1.47.54.05.19-.32.44-.59.61"/>
</svg>