<?xml version="1.0" encoding="UTF-8"?>
<svg id="Layer_1" data-name="Layer 1" xmlns="http://www.w3.org/2000/svg" viewBox="0 0 13.04 6.95">
  <defs>
    <style>
      .cls-1 {
        stroke-width: .5px;
      }

      .cls-1, .cls-2, .cls-3 {
        stroke: #000;
      }

      .cls-1, .cls-2, .cls-3, .cls-4 {
        stroke-miterlimit: 10;
      }

      .cls-1, .cls-5, .cls-3, .cls-4 {
        fill: none;
      }

      .cls-2, .cls-3, .cls-4 {
        stroke-width: .25px;
      }

      .cls-4 {
        stroke: #fff;
      }
    </style>
  </defs>
  <path class="cls-1" d="M10.28,3.6c-.02,1.73-2.3,3.14-5.05,3.1-2.75-.03-5-1.49-4.98-3.22"/>
  <path class="cls-1" d="M.26,4.47c-.09-1.73,2.1-3.27,4.84-3.41,2.75-.14,5.08,1.17,5.17,2.9"/>
  <path class="cls-1" d="M10.36,4.15l1.93,1.11c.22.13.5-.03.5-.29v-2.23c0-.26-.28-.42-.5-.29l-1.93,1.11c-.22.13-.22.45,0,.58Z"/>
  <circle class="cls-2" cx="1.92" cy="3.86" r=".59"/>
  <path class="cls-5" d="M5.73,4.86c.24.01.45-.18.68-.17.16,0,.32.1.42.23s.17.28.23.43c.03.07.06.15.07.23,0,.14-.07.28-.18.36s-.25.13-.39.13c-.32.02-.64-.14-.83-.39"/>
  <path class="cls-3" d="M5.46,4.43l.56.09c.09.02.19.03.28.07.15.08.26.24.28.41s-.03.34-.14.48c-.16.21-.43.32-.69.31s-.51-.15-.67-.36"/>
  <path class="cls-4" d="M1.98,3.51s0,.13.03.13.05-.07.05-.13c-.03-.03-.07-.01-.08.04"/>
  <path class="cls-1" d="M2.46,1.51c.52-.62,1.27-1,2.06-1.17s1.61-.11,2.4.06c.37.08.73.18,1.05.38s.59.49.68.86"/>
  <path class="cls-3" d="M4.25,1.02l.06-.29"/>
  <path class="cls-3" d="M4.97,1.06c.13-.16.21-.36.24-.57"/>
  <path class="cls-3" d="M5.85,1.06c.11-.06.19-.17.24-.28"/>
  <path class="cls-3" d="M6.93,1.09c.13,0,.25-.11.25-.24"/>
</svg>